<?xml version="1.0" encoding="UTF-8" standalone="no"?><svg xmlns="http://www.w3.org/2000/svg" xmlns:xlink="http://www.w3.org/1999/xlink" clip-rule="evenodd" stroke-miterlimit="10" viewBox="0 0 789 61"><desc>SVG generated by Keynote</desc><defs></defs><g transform="matrix(1.00, 0.00, -0.00, -1.00, 0.0, 61.0)"><text xml:space="preserve" font-family="Helvetica-Light,Helvetica" font-size="20.8" fill="#000000" transform="matrix(1.00, 0.00, -0.00, -1.00, 0.0, 41.3)">•</text><text xml:space="preserve" font-family="Helvetica-Bold,Helvetica" font-weight="bold" font-size="27.7" fill="#000000" transform="matrix(1.00, 0.00, -0.00, -1.00, 26.9, 39.4)">W</text><text xml:space="preserve" font-family="Helvetica-Bold,Helvetica" font-weight="bold" font-size="27.7" fill="#000000" transform="matrix(1.00, 0.00, -0.00, -1.00, 52.6, 39.4)">e</text><text xml:space="preserve" font-family="Helvetica-Bold,Helvetica" font-weight="bold" font-size="27.7" fill="#000000" transform="matrix(1.00, 0.00, -0.00, -1.00, 68.0, 39.4)">b</text><text xml:space="preserve" font-family="Helvetica-Bold,Helvetica" font-weight="bold" font-size="27.7" fill="#000000" transform="matrix(1.00, 0.00, -0.00, -1.00, 85.0, 39.4)">s</text><text xml:space="preserve" font-family="Helvetica-Bold,Helvetica" font-weight="bold" font-size="27.7" fill="#000000" transform="matrix(1.00, 0.00, -0.00, -1.00, 100.4, 39.4)">t</text><text xml:space="preserve" font-family="Helvetica-Bold,Helvetica" font-weight="bold" font-size="27.7" fill="#000000" transform="matrix(1.00, 0.00, -0.00, -1.00, 109.6, 39.4)">o</text><text xml:space="preserve" font-family="Helvetica-Bold,Helvetica" font-weight="bold" font-size="27.7" fill="#000000" transform="matrix(1.00, 0.00, -0.00, -1.00, 126.6, 39.4)">r</text><text xml:space="preserve" font-family="Helvetica-Bold,Helvetica" font-weight="bold" font-size="27.7" fill="#000000" transform="matrix(1.00, 0.00, -0.00, -1.00, 137.3, 39.4)">m</text><text xml:space="preserve" font-family="Helvetica-Bold,Helvetica" font-weight="bold" font-size="27.7" fill="#000000" transform="matrix(1.00, 0.00, -0.00, -1.00, 162.0, 39.4)"> </text><text xml:space="preserve" font-family="Helvetica-Bold,Helvetica" font-weight="bold" font-size="27.7" fill="#000000" transform="matrix(1.00, 0.00, -0.00, -1.00, 169.7, 39.4)">a</text><text xml:space="preserve" font-family="Helvetica-Bold,Helvetica" font-weight="bold" font-size="27.7" fill="#000000" transform="matrix(1.00, 0.00, -0.00, -1.00, 185.1, 39.4)">n</text><text xml:space="preserve" font-family="Helvetica-Bold,Helvetica" font-weight="bold" font-size="27.7" fill="#000000" transform="matrix(1.00, 0.00, -0.00, -1.00, 202.0, 39.4)">d</text><text xml:space="preserve" font-family="Helvetica-Bold,Helvetica" font-weight="bold" font-size="27.7" fill="#000000" transform="matrix(1.00, 0.00, -0.00, -1.00, 219.0, 39.4)"> </text><text xml:space="preserve" font-family="Helvetica-Bold,Helvetica" font-weight="bold" font-size="27.7" fill="#000000" transform="matrix(1.00, 0.00, -0.00, -1.00, 226.7, 39.4)">o</text><text xml:space="preserve" font-family="Helvetica-Bold,Helvetica" font-weight="bold" font-size="27.7" fill="#000000" transform="matrix(1.00, 0.00, -0.00, -1.00, 243.6, 39.4)">t</text><text xml:space="preserve" font-family="Helvetica-Bold,Helvetica" font-weight="bold" font-size="27.7" fill="#000000" transform="matrix(1.00, 0.00, -0.00, -1.00, 252.8, 39.4)">h</text><text xml:space="preserve" font-family="Helvetica-Bold,Helvetica" font-weight="bold" font-size="27.7" fill="#000000" transform="matrix(1.00, 0.00, -0.00, -1.00, 269.8, 39.4)">e</text><text xml:space="preserve" font-family="Helvetica-Bold,Helvetica" font-weight="bold" font-size="27.7" fill="#000000" transform="matrix(1.00, 0.00, -0.00, -1.00, 285.2, 39.4)">r</text><text xml:space="preserve" font-family="Helvetica-Bold,Helvetica" font-weight="bold" font-size="27.7" fill="#000000" transform="matrix(1.00, 0.00, -0.00, -1.00, 296.0, 39.4)"> </text><text xml:space="preserve" font-family="Helvetica-Bold,Helvetica" font-weight="bold" font-size="27.7" fill="#000000" transform="matrix(1.00, 0.00, -0.00, -1.00, 303.7, 39.4)">I</text><text xml:space="preserve" font-family="Helvetica-Bold,Helvetica" font-weight="bold" font-size="27.7" fill="#000000" transform="matrix(1.00, 0.00, -0.00, -1.00, 311.4, 39.4)">D</text><text xml:space="preserve" font-family="Helvetica-Bold,Helvetica" font-weight="bold" font-size="27.7" fill="#000000" transform="matrix(1.00, 0.00, -0.00, -1.00, 331.4, 39.4)">E</text><text xml:space="preserve" font-family="Helvetica-Bold,Helvetica" font-weight="bold" font-size="27.7" fill="#000000" transform="matrix(1.00, 0.00, -0.00, -1.00, 349.9, 39.4)">s</text><text xml:space="preserve" font-family="Helvetica-Light,Helvetica" font-size="27.7" fill="#000000" transform="matrix(1.00, 0.00, -0.00, -1.00, 365.3, 39.4)">:</text><text xml:space="preserve" font-family="Helvetica-Light,Helvetica" font-size="27.7" fill="#000000" transform="matrix(1.00, 0.00, -0.00, -1.00, 373.0, 39.4)"> </text><text xml:space="preserve" font-family="Helvetica-Light,Helvetica" font-size="27.7" fill="#000000" transform="matrix(1.00, 0.00, -0.00, -1.00, 380.7, 39.4)">v</text><text xml:space="preserve" font-family="Helvetica-Light,Helvetica" font-size="27.7" fill="#000000" transform="matrix(1.00, 0.00, -0.00, -1.00, 394.6, 39.4)">i</text><text xml:space="preserve" font-family="Helvetica-Light,Helvetica" font-size="27.7" fill="#000000" transform="matrix(1.00, 0.00, -0.00, -1.00, 400.7, 39.4)">s</text><text xml:space="preserve" font-family="Helvetica-Light,Helvetica" font-size="27.7" fill="#000000" transform="matrix(1.00, 0.00, -0.00, -1.00, 414.6, 39.4)">u</text><text xml:space="preserve" font-family="Helvetica-Light,Helvetica" font-size="27.7" fill="#000000" transform="matrix(1.00, 0.00, -0.00, -1.00, 430.0, 39.4)">a</text><text xml:space="preserve" font-family="Helvetica-Light,Helvetica" font-size="27.7" fill="#000000" transform="matrix(1.00, 0.00, -0.00, -1.00, 445.4, 39.4)">l</text><text xml:space="preserve" font-family="Helvetica-Light,Helvetica" font-size="27.7" fill="#000000" transform="matrix(1.00, 0.00, -0.00, -1.00, 451.6, 39.4)"> </text><text xml:space="preserve" font-family="Helvetica-Light,Helvetica" font-size="27.7" fill="#000000" transform="matrix(1.00, 0.00, -0.00, -1.00, 459.3, 39.4)">d</text><text xml:space="preserve" font-family="Helvetica-Light,Helvetica" font-size="27.7" fill="#000000" transform="matrix(1.00, 0.00, -0.00, -1.00, 476.2, 39.4)">e</text><text xml:space="preserve" font-family="Helvetica-Light,Helvetica" font-size="27.7" fill="#000000" transform="matrix(1.00, 0.00, -0.00, -1.00, 491.6, 39.4)">b</text><text xml:space="preserve" font-family="Helvetica-Light,Helvetica" font-size="27.7" fill="#000000" transform="matrix(1.00, 0.00, -0.00, -1.00, 508.6, 39.4)">u</text><text xml:space="preserve" font-family="Helvetica-Light,Helvetica" font-size="27.7" fill="#000000" transform="matrix(1.00, 0.00, -0.00, -1.00, 524.0, 39.4)">g</text><text xml:space="preserve" font-family="Helvetica-Light,Helvetica" font-size="27.7" fill="#000000" transform="matrix(1.00, 0.00, -0.00, -1.00, 540.9, 39.4)">g</text><text xml:space="preserve" font-family="Helvetica-Light,Helvetica" font-size="27.7" fill="#000000" transform="matrix(1.00, 0.00, -0.00, -1.00, 557.8, 39.4)">e</text><text xml:space="preserve" font-family="Helvetica-Light,Helvetica" font-size="27.7" fill="#000000" transform="matrix(1.00, 0.00, -0.00, -1.00, 573.3, 39.4)">r</text><text xml:space="preserve" font-family="Helvetica-Light,Helvetica" font-size="27.7" fill="#000000" transform="matrix(1.00, 0.00, -0.00, -1.00, 582.5, 39.4)">s</text><text xml:space="preserve" font-family="Helvetica-Light,Helvetica" font-size="27.7" fill="#000000" transform="matrix(1.00, 0.00, -0.00, -1.00, 596.3, 39.4)">,</text><text xml:space="preserve" font-family="Helvetica-Light,Helvetica" font-size="27.7" fill="#000000" transform="matrix(1.00, 0.00, -0.00, -1.00, 604.1, 39.4)"> </text><text xml:space="preserve" font-family="Helvetica-Light,Helvetica" font-size="27.7" fill="#000000" transform="matrix(1.00, 0.00, -0.00, -1.00, 611.8, 39.4)">ﬁ</text><text xml:space="preserve" font-family="Helvetica-Light,Helvetica" font-size="27.7" fill="#000000" transform="matrix(1.00, 0.00, -0.00, -1.00, 625.6, 39.4)">n</text><text xml:space="preserve" font-family="Helvetica-Light,Helvetica" font-size="27.7" fill="#000000" transform="matrix(1.00, 0.00, -0.00, -1.00, 641.0, 39.4)">d</text><text xml:space="preserve" font-family="Helvetica-Light,Helvetica" font-size="27.7" fill="#000000" transform="matrix(1.00, 0.00, -0.00, -1.00, 658.0, 39.4)"> </text><text xml:space="preserve" font-family="Helvetica-Light,Helvetica" font-size="27.7" fill="#000000" transform="matrix(1.00, 0.00, -0.00, -1.00, 665.7, 39.4)">u</text><text xml:space="preserve" font-family="Helvetica-Light,Helvetica" font-size="27.7" fill="#000000" transform="matrix(1.00, 0.00, -0.00, -1.00, 681.1, 39.4)">s</text><text xml:space="preserve" font-family="Helvetica-Light,Helvetica" font-size="27.7" fill="#000000" transform="matrix(1.00, 0.00, -0.00, -1.00, 694.9, 39.4)">a</text><text xml:space="preserve" font-family="Helvetica-Light,Helvetica" font-size="27.7" fill="#000000" transform="matrix(1.00, 0.00, -0.00, -1.00, 710.4, 39.4)">g</text><text xml:space="preserve" font-family="Helvetica-Light,Helvetica" font-size="27.7" fill="#000000" transform="matrix(1.00, 0.00, -0.00, -1.00, 727.3, 39.4)">e</text><text xml:space="preserve" font-family="Helvetica-Light,Helvetica" font-size="27.7" fill="#000000" transform="matrix(1.00, 0.00, -0.00, -1.00, 742.7, 39.4)">s</text><text xml:space="preserve" font-family="Helvetica-Light,Helvetica" font-size="27.7" fill="#000000" transform="matrix(1.00, 0.00, -0.00, -1.00, 756.6, 39.4)"> </text><text xml:space="preserve" font-family="Helvetica-Light,Helvetica" font-size="27.7" fill="#000000" transform="matrix(1.00, 0.00, -0.00, -1.00, 764.3, 39.4)">o</text><text xml:space="preserve" font-family="Helvetica-Light,Helvetica" font-size="27.7" fill="#000000" transform="matrix(1.00, 0.00, -0.00, -1.00, 779.7, 39.4)">f</text><text xml:space="preserve" font-family="Helvetica-Light,Helvetica" font-size="27.7" fill="#000000" transform="matrix(1.00, 0.00, -0.00, -1.00, 787.4, 39.4)"> </text><text xml:space="preserve" font-family="Helvetica-Light,Helvetica" font-size="27.7" fill="#000000" transform="matrix(1.00, 0.00, -0.00, -1.00, 26.9, 7.4)">f</text><text xml:space="preserve" font-family="Helvetica-Light,Helvetica" font-size="27.7" fill="#000000" transform="matrix(1.00, 0.00, -0.00, -1.00, 34.7, 7.4)">u</text><text xml:space="preserve" font-family="Helvetica-Light,Helvetica" font-size="27.7" fill="#000000" transform="matrix(1.00, 0.00, -0.00, -1.00, 50.1, 7.4)">n</text><text xml:space="preserve" font-family="Helvetica-Light,Helvetica" font-size="27.7" fill="#000000" transform="matrix(1.00, 0.00, -0.00, -1.00, 65.5, 7.4)">c</text><text xml:space="preserve" font-family="Helvetica-Light,Helvetica" font-size="27.7" fill="#000000" transform="matrix(1.00, 0.00, -0.00, -1.00, 80.9, 7.4)">t</text><text xml:space="preserve" font-family="Helvetica-Light,Helvetica" font-size="27.7" fill="#000000" transform="matrix(1.00, 0.00, -0.00, -1.00, 88.6, 7.4)">i</text><text xml:space="preserve" font-family="Helvetica-Light,Helvetica" font-size="27.7" fill="#000000" transform="matrix(1.00, 0.00, -0.00, -1.00, 94.8, 7.4)">o</text><text xml:space="preserve" font-family="Helvetica-Light,Helvetica" font-size="27.7" fill="#000000" transform="matrix(1.00, 0.00, -0.00, -1.00, 110.2, 7.4)">n</text><text xml:space="preserve" font-family="Helvetica-Light,Helvetica" font-size="27.7" fill="#000000" transform="matrix(1.00, 0.00, -0.00, -1.00, 125.6, 7.4)">s</text><text xml:space="preserve" font-family="Helvetica-Light,Helvetica" font-size="27.7" fill="#000000" transform="matrix(1.00, 0.00, -0.00, -1.00, 139.4, 7.4)">,</text><text xml:space="preserve" font-family="Helvetica-Light,Helvetica" font-size="27.7" fill="#000000" transform="matrix(1.00, 0.00, -0.00, -1.00, 147.1, 7.4)"> </text><text xml:space="preserve" font-family="Helvetica-Light,Helvetica" font-size="27.7" fill="#000000" transform="matrix(1.00, 0.00, -0.00, -1.00, 154.9, 7.4)">e</text><text xml:space="preserve" font-family="Helvetica-Light,Helvetica" font-size="27.7" fill="#000000" transform="matrix(1.00, 0.00, -0.00, -1.00, 170.3, 7.4)">x</text><text xml:space="preserve" font-family="Helvetica-Light,Helvetica" font-size="27.7" fill="#000000" transform="matrix(1.00, 0.00, -0.00, -1.00, 184.1, 7.4)">t</text><text xml:space="preserve" font-family="Helvetica-Light,Helvetica" font-size="27.7" fill="#000000" transform="matrix(1.00, 0.00, -0.00, -1.00, 191.8, 7.4)">e</text><text xml:space="preserve" font-family="Helvetica-Light,Helvetica" font-size="27.7" fill="#000000" transform="matrix(1.00, 0.00, -0.00, -1.00, 207.2, 7.4)">n</text><text xml:space="preserve" font-family="Helvetica-Light,Helvetica" font-size="27.7" fill="#000000" transform="matrix(1.00, 0.00, -0.00, -1.00, 222.7, 7.4)">s</text><text xml:space="preserve" font-family="Helvetica-Light,Helvetica" font-size="27.7" fill="#000000" transform="matrix(1.00, 0.00, -0.00, -1.00, 236.5, 7.4)">i</text><text xml:space="preserve" font-family="Helvetica-Light,Helvetica" font-size="27.7" fill="#000000" transform="matrix(1.00, 0.00, -0.00, -1.00, 242.7, 7.4)">v</text><text xml:space="preserve" font-family="Helvetica-Light,Helvetica" font-size="27.7" fill="#000000" transform="matrix(1.00, 0.00, -0.00, -1.00, 256.5, 7.4)">e</text><text xml:space="preserve" font-family="Helvetica-Light,Helvetica" font-size="27.7" fill="#000000" transform="matrix(1.00, 0.00, -0.00, -1.00, 271.9, 7.4)"> </text><text xml:space="preserve" font-family="Helvetica-Light,Helvetica" font-size="27.7" fill="#000000" transform="matrix(1.00, 0.00, -0.00, -1.00, 279.6, 7.4)">a</text><text xml:space="preserve" font-family="Helvetica-Light,Helvetica" font-size="27.7" fill="#000000" transform="matrix(1.00, 0.00, -0.00, -1.00, 295.1, 7.4)">u</text><text xml:space="preserve" font-family="Helvetica-Light,Helvetica" font-size="27.7" fill="#000000" transform="matrix(1.00, 0.00, -0.00, -1.00, 310.5, 7.4)">t</text><text xml:space="preserve" font-family="Helvetica-Light,Helvetica" font-size="27.7" fill="#000000" transform="matrix(1.00, 0.00, -0.00, -1.00, 318.2, 7.4)">o</text><text xml:space="preserve" font-family="Helvetica-Light,Helvetica" font-size="27.7" fill="#000000" transform="matrix(1.00, 0.00, -0.00, -1.00, 333.6, 7.4)">c</text><text xml:space="preserve" font-family="Helvetica-Light,Helvetica" font-size="27.7" fill="#000000" transform="matrix(1.00, 0.00, -0.00, -1.00, 349.0, 7.4)">o</text><text xml:space="preserve" font-family="Helvetica-Light,Helvetica" font-size="27.7" fill="#000000" transform="matrix(1.00, 0.00, -0.00, -1.00, 364.4, 7.4)">m</text><text xml:space="preserve" font-family="Helvetica-Light,Helvetica" font-size="27.7" fill="#000000" transform="matrix(1.00, 0.00, -0.00, -1.00, 387.5, 7.4)">p</text><text xml:space="preserve" font-family="Helvetica-Light,Helvetica" font-size="27.7" fill="#000000" transform="matrix(1.00, 0.00, -0.00, -1.00, 404.4, 7.4)">l</text><text xml:space="preserve" font-family="Helvetica-Light,Helvetica" font-size="27.7" fill="#000000" transform="matrix(1.00, 0.00, -0.00, -1.00, 410.6, 7.4)">e</text><text xml:space="preserve" font-family="Helvetica-Light,Helvetica" font-size="27.7" fill="#000000" transform="matrix(1.00, 0.00, -0.00, -1.00, 426.0, 7.4)">t</text><text xml:space="preserve" font-family="Helvetica-Light,Helvetica" font-size="27.7" fill="#000000" transform="matrix(1.00, 0.00, -0.00, -1.00, 433.7, 7.4)">i</text><text xml:space="preserve" font-family="Helvetica-Light,Helvetica" font-size="27.7" fill="#000000" transform="matrix(1.00, 0.00, -0.00, -1.00, 439.9, 7.4)">o</text><text xml:space="preserve" font-family="Helvetica-Light,Helvetica" font-size="27.7" fill="#000000" transform="matrix(1.00, 0.00, -0.00, -1.00, 455.3, 7.4)">n</text></g></svg>