<?xml version="1.0" encoding="UTF-8" standalone="no"?><svg xmlns="http://www.w3.org/2000/svg" xmlns:xlink="http://www.w3.org/1999/xlink" clip-rule="evenodd" stroke-miterlimit="10" viewBox="0 0 1024 768"><desc>SVG generated by Keynote</desc><defs></defs><g transform="matrix(1.00, 0.00, -0.00, -1.00, 0.0, 768.0)"><path d="M 0.0 768.0 L 1024.0 768.0 L 1024.0 0.0 L 0.0 0.0 Z M 0.0 768.0 " fill="#FEFFFF"></path><text xml:space="preserve" font-family="Helvetica-Light,Helvetica" font-size="70.4" fill="#000000" transform="matrix(1.00, 0.00, -0.00, -1.00, 206.8, 442.2)">C</text><text xml:space="preserve" font-family="Helvetica-Light,Helvetica" font-size="70.4" fill="#000000" transform="matrix(1.00, 0.00, -0.00, -1.00, 257.6, 442.2)">a</text><text xml:space="preserve" font-family="Helvetica-Light,Helvetica" font-size="70.4" fill="#000000" transform="matrix(1.00, 0.00, -0.00, -1.00, 296.8, 442.2)">n</text><text xml:space="preserve" font-family="Helvetica-Light,Helvetica" font-size="70.4" fill="#000000" transform="matrix(1.00, 0.00, -0.00, -1.00, 335.9, 442.2)"> </text><text xml:space="preserve" font-family="Helvetica-Light,Helvetica" font-size="70.4" fill="#000000" transform="matrix(1.00, 0.00, -0.00, -1.00, 355.5, 442.2)">t</text><text xml:space="preserve" font-family="Helvetica-Light,Helvetica" font-size="70.4" fill="#000000" transform="matrix(1.00, 0.00, -0.00, -1.00, 375.1, 442.2)">o</text><text xml:space="preserve" font-family="Helvetica-Light,Helvetica" font-size="70.4" fill="#000000" transform="matrix(1.00, 0.00, -0.00, -1.00, 414.2, 442.2)">o</text><text xml:space="preserve" font-family="Helvetica-Light,Helvetica" font-size="70.4" fill="#000000" transform="matrix(1.00, 0.00, -0.00, -1.00, 453.4, 442.2)">l</text><text xml:space="preserve" font-family="Helvetica-Light,Helvetica" font-size="70.4" fill="#000000" transform="matrix(1.00, 0.00, -0.00, -1.00, 469.0, 442.2)">i</text><text xml:space="preserve" font-family="Helvetica-Light,Helvetica" font-size="70.4" fill="#000000" transform="matrix(1.00, 0.00, -0.00, -1.00, 484.6, 442.2)">n</text><text xml:space="preserve" font-family="Helvetica-Light,Helvetica" font-size="70.4" fill="#000000" transform="matrix(1.00, 0.00, -0.00, -1.00, 523.8, 442.2)">g</text><text xml:space="preserve" font-family="Helvetica-Light,Helvetica" font-size="70.4" fill="#000000" transform="matrix(1.00, 0.00, -0.00, -1.00, 566.8, 442.2)"> </text><text xml:space="preserve" font-family="Helvetica-Light,Helvetica" font-size="70.4" fill="#000000" transform="matrix(1.00, 0.00, -0.00, -1.00, 586.3, 442.2)">h</text><text xml:space="preserve" font-family="Helvetica-Light,Helvetica" font-size="70.4" fill="#000000" transform="matrix(1.00, 0.00, -0.00, -1.00, 625.5, 442.2)">e</text><text xml:space="preserve" font-family="Helvetica-Light,Helvetica" font-size="70.4" fill="#000000" transform="matrix(1.00, 0.00, -0.00, -1.00, 664.6, 442.2)">l</text><text xml:space="preserve" font-family="Helvetica-Light,Helvetica" font-size="70.4" fill="#000000" transform="matrix(1.00, 0.00, -0.00, -1.00, 680.3, 442.2)">p</text><text xml:space="preserve" font-family="Helvetica-Light,Helvetica" font-size="70.4" fill="#000000" transform="matrix(1.00, 0.00, -0.00, -1.00, 723.3, 442.2)"> </text><text xml:space="preserve" font-family="Helvetica-Light,Helvetica" font-size="70.4" fill="#000000" transform="matrix(1.00, 0.00, -0.00, -1.00, 742.8, 442.2)">u</text><text xml:space="preserve" font-family="Helvetica-Light,Helvetica" font-size="70.4" fill="#000000" transform="matrix(1.00, 0.00, -0.00, -1.00, 782.0, 442.2)">s</text><text xml:space="preserve" font-family="Helvetica-Light,Helvetica" font-size="70.4" fill="#000000" transform="matrix(1.00, 0.00, -0.00, -1.00, 817.2, 442.2)"> </text><text xml:space="preserve" font-family="Helvetica-Light,Helvetica" font-size="70.4" fill="#000000" transform="matrix(1.00, 0.00, -0.00, -1.00, 273.3, 358.2)">u</text><text xml:space="preserve" font-family="Helvetica-Light,Helvetica" font-size="70.4" fill="#000000" transform="matrix(1.00, 0.00, -0.00, -1.00, 312.5, 358.2)">n</text><text xml:space="preserve" font-family="Helvetica-Light,Helvetica" font-size="70.4" fill="#000000" transform="matrix(1.00, 0.00, -0.00, -1.00, 351.6, 358.2)">d</text><text xml:space="preserve" font-family="Helvetica-Light,Helvetica" font-size="70.4" fill="#000000" transform="matrix(1.00, 0.00, -0.00, -1.00, 394.6, 358.2)">e</text><text xml:space="preserve" font-family="Helvetica-Light,Helvetica" font-size="70.4" fill="#000000" transform="matrix(1.00, 0.00, -0.00, -1.00, 433.8, 358.2)">r</text><text xml:space="preserve" font-family="Helvetica-Light,Helvetica" font-size="70.4" fill="#000000" transform="matrix(1.00, 0.00, -0.00, -1.00, 457.2, 358.2)">s</text><text xml:space="preserve" font-family="Helvetica-Light,Helvetica" font-size="70.4" fill="#000000" transform="matrix(1.00, 0.00, -0.00, -1.00, 492.4, 358.2)">t</text><text xml:space="preserve" font-family="Helvetica-Light,Helvetica" font-size="70.4" fill="#000000" transform="matrix(1.00, 0.00, -0.00, -1.00, 512.0, 358.2)">a</text><text xml:space="preserve" font-family="Helvetica-Light,Helvetica" font-size="70.4" fill="#000000" transform="matrix(1.00, 0.00, -0.00, -1.00, 551.1, 358.2)">n</text><text xml:space="preserve" font-family="Helvetica-Light,Helvetica" font-size="70.4" fill="#000000" transform="matrix(1.00, 0.00, -0.00, -1.00, 590.2, 358.2)">d</text><text xml:space="preserve" font-family="Helvetica-Light,Helvetica" font-size="70.4" fill="#000000" transform="matrix(1.00, 0.00, -0.00, -1.00, 633.3, 358.2)"> </text><text xml:space="preserve" font-family="Helvetica-Light,Helvetica" font-size="70.4" fill="#000000" transform="matrix(1.00, 0.00, -0.00, -1.00, 652.8, 358.2)">t</text><text xml:space="preserve" font-family="Helvetica-Light,Helvetica" font-size="70.4" fill="#000000" transform="matrix(1.00, 0.00, -0.00, -1.00, 672.4, 358.2)">h</text><text xml:space="preserve" font-family="Helvetica-Light,Helvetica" font-size="70.4" fill="#000000" transform="matrix(1.00, 0.00, -0.00, -1.00, 711.5, 358.2)">e</text><text xml:space="preserve" font-family="Helvetica-Light,Helvetica" font-size="70.4" fill="#000000" transform="matrix(1.00, 0.00, -0.00, -1.00, 750.7, 358.2)"> </text><text xml:space="preserve" font-family="Helvetica-Light,Helvetica" font-size="70.4" fill="#000000" transform="matrix(1.00, 0.00, -0.00, -1.00, 127.2, 274.2)">d</text><text xml:space="preserve" font-family="Helvetica-Light,Helvetica" font-size="70.4" fill="#000000" transform="matrix(1.00, 0.00, -0.00, -1.00, 170.2, 274.2)">e</text><text xml:space="preserve" font-family="Helvetica-Light,Helvetica" font-size="70.4" fill="#000000" transform="matrix(1.00, 0.00, -0.00, -1.00, 209.4, 274.2)">p</text><text xml:space="preserve" font-family="Helvetica-Light,Helvetica" font-size="70.4" fill="#000000" transform="matrix(1.00, 0.00, -0.00, -1.00, 252.4, 274.2)">e</text><text xml:space="preserve" font-family="Helvetica-Light,Helvetica" font-size="70.4" fill="#000000" transform="matrix(1.00, 0.00, -0.00, -1.00, 291.5, 274.2)">n</text><text xml:space="preserve" font-family="Helvetica-Light,Helvetica" font-size="70.4" fill="#000000" transform="matrix(1.00, 0.00, -0.00, -1.00, 330.7, 274.2)">d</text><text xml:space="preserve" font-family="Helvetica-Light,Helvetica" font-size="70.4" fill="#000000" transform="matrix(1.00, 0.00, -0.00, -1.00, 373.7, 274.2)">e</text><text xml:space="preserve" font-family="Helvetica-Light,Helvetica" font-size="70.4" fill="#000000" transform="matrix(1.00, 0.00, -0.00, -1.00, 412.8, 274.2)">n</text><text xml:space="preserve" font-family="Helvetica-Light,Helvetica" font-size="70.4" fill="#000000" transform="matrix(1.00, 0.00, -0.00, -1.00, 452.0, 274.2)">c</text><text xml:space="preserve" font-family="Helvetica-Light,Helvetica" font-size="70.4" fill="#000000" transform="matrix(1.00, 0.00, -0.00, -1.00, 491.1, 274.2)">y</text><text xml:space="preserve" font-family="Helvetica-Light,Helvetica" font-size="70.4" fill="#000000" transform="matrix(1.00, 0.00, -0.00, -1.00, 526.3, 274.2)"> </text><text xml:space="preserve" font-family="Helvetica-Light,Helvetica" font-size="70.4" fill="#000000" transform="matrix(1.00, 0.00, -0.00, -1.00, 545.9, 274.2)">t</text><text xml:space="preserve" font-family="Helvetica-Light,Helvetica" font-size="70.4" fill="#000000" transform="matrix(1.00, 0.00, -0.00, -1.00, 565.5, 274.2)">r</text><text xml:space="preserve" font-family="Helvetica-Light,Helvetica" font-size="70.4" fill="#000000" transform="matrix(1.00, 0.00, -0.00, -1.00, 587.6, 274.2)">e</text><text xml:space="preserve" font-family="Helvetica-Light,Helvetica" font-size="70.4" fill="#000000" transform="matrix(1.00, 0.00, -0.00, -1.00, 626.8, 274.2)">e</text><text xml:space="preserve" font-family="Helvetica-Light,Helvetica" font-size="70.4" fill="#000000" transform="matrix(1.00, 0.00, -0.00, -1.00, 665.9, 274.2)"> </text><text xml:space="preserve" font-family="Helvetica-Light,Helvetica" font-size="70.4" fill="#000000" transform="matrix(1.00, 0.00, -0.00, -1.00, 685.5, 274.2)">f</text><text xml:space="preserve" font-family="Helvetica-Light,Helvetica" font-size="70.4" fill="#000000" transform="matrix(1.00, 0.00, -0.00, -1.00, 705.1, 274.2)">a</text><text xml:space="preserve" font-family="Helvetica-Light,Helvetica" font-size="70.4" fill="#000000" transform="matrix(1.00, 0.00, -0.00, -1.00, 744.2, 274.2)">s</text><text xml:space="preserve" font-family="Helvetica-Light,Helvetica" font-size="70.4" fill="#000000" transform="matrix(1.00, 0.00, -0.00, -1.00, 779.4, 274.2)">t</text><text xml:space="preserve" font-family="Helvetica-Light,Helvetica" font-size="70.4" fill="#000000" transform="matrix(1.00, 0.00, -0.00, -1.00, 799.0, 274.2)">e</text><text xml:space="preserve" font-family="Helvetica-Light,Helvetica" font-size="70.4" fill="#000000" transform="matrix(1.00, 0.00, -0.00, -1.00, 838.1, 274.2)">r</text><text xml:space="preserve" font-family="Helvetica-Light,Helvetica" font-size="70.4" fill="#000000" transform="matrix(1.00, 0.00, -0.00, -1.00, 861.6, 274.2)">?</text></g></svg>