<?xml version="1.0" encoding="UTF-8" standalone="no"?><svg xmlns="http://www.w3.org/2000/svg" xmlns:xlink="http://www.w3.org/1999/xlink" clip-rule="evenodd" stroke-miterlimit="10" viewBox="0 0 1024 768"><desc>SVG generated by Keynote</desc><defs></defs><g transform="matrix(1.00, 0.00, -0.00, -1.00, 0.0, 768.0)"><path d="M 0.0 768.0 L 1024.0 768.0 L 1024.0 0.0 L 0.0 0.0 Z M 0.0 768.0 " fill="#FEFFFF"></path><text xml:space="preserve" font-family="Helvetica-Light,Helvetica" font-size="80.0" fill="#000000" transform="matrix(1.00, 0.00, -0.00, -1.00, 246.0, 618.4)">A</text><text xml:space="preserve" font-family="Helvetica-Light,Helvetica" font-size="80.0" fill="#000000" transform="matrix(1.00, 0.00, -0.00, -1.00, 297.9, 618.4)">v</text><text xml:space="preserve" font-family="Helvetica-Light,Helvetica" font-size="80.0" fill="#000000" transform="matrix(1.00, 0.00, -0.00, -1.00, 337.9, 618.4)">a</text><text xml:space="preserve" font-family="Helvetica-Light,Helvetica" font-size="80.0" fill="#000000" transform="matrix(1.00, 0.00, -0.00, -1.00, 382.4, 618.4)">i</text><text xml:space="preserve" font-family="Helvetica-Light,Helvetica" font-size="80.0" fill="#000000" transform="matrix(1.00, 0.00, -0.00, -1.00, 400.1, 618.4)">l</text><text xml:space="preserve" font-family="Helvetica-Light,Helvetica" font-size="80.0" fill="#000000" transform="matrix(1.00, 0.00, -0.00, -1.00, 417.9, 618.4)">a</text><text xml:space="preserve" font-family="Helvetica-Light,Helvetica" font-size="80.0" fill="#000000" transform="matrix(1.00, 0.00, -0.00, -1.00, 462.4, 618.4)">b</text><text xml:space="preserve" font-family="Helvetica-Light,Helvetica" font-size="80.0" fill="#000000" transform="matrix(1.00, 0.00, -0.00, -1.00, 511.2, 618.4)">l</text><text xml:space="preserve" font-family="Helvetica-Light,Helvetica" font-size="80.0" fill="#000000" transform="matrix(1.00, 0.00, -0.00, -1.00, 529.0, 618.4)">e</text><text xml:space="preserve" font-family="Helvetica-Light,Helvetica" font-size="80.0" fill="#000000" transform="matrix(1.00, 0.00, -0.00, -1.00, 573.5, 618.4)"> </text><text xml:space="preserve" font-family="Helvetica-Light,Helvetica" font-size="80.0" fill="#000000" transform="matrix(1.00, 0.00, -0.00, -1.00, 595.7, 618.4)">T</text><text xml:space="preserve" font-family="Helvetica-Light,Helvetica" font-size="80.0" fill="#000000" transform="matrix(1.00, 0.00, -0.00, -1.00, 631.3, 618.4)">o</text><text xml:space="preserve" font-family="Helvetica-Light,Helvetica" font-size="80.0" fill="#000000" transform="matrix(1.00, 0.00, -0.00, -1.00, 675.8, 618.4)">o</text><text xml:space="preserve" font-family="Helvetica-Light,Helvetica" font-size="80.0" fill="#000000" transform="matrix(1.00, 0.00, -0.00, -1.00, 720.3, 618.4)">l</text><text xml:space="preserve" font-family="Helvetica-Light,Helvetica" font-size="80.0" fill="#000000" transform="matrix(1.00, 0.00, -0.00, -1.00, 738.0, 618.4)">s</text><text xml:space="preserve" font-family="Helvetica-Light,Helvetica" font-size="20.8" fill="#000000" transform="matrix(1.00, 0.00, -0.00, -1.00, 79.0, 532.3)">•</text><text xml:space="preserve" font-family="Helvetica-Bold,Helvetica" font-weight="bold" font-size="27.7" fill="#000000" transform="matrix(1.00, 0.00, -0.00, -1.00, 106.0, 530.4)">W</text><text xml:space="preserve" font-family="Helvetica-Bold,Helvetica" font-weight="bold" font-size="27.7" fill="#000000" transform="matrix(1.00, 0.00, -0.00, -1.00, 131.6, 530.4)">e</text><text xml:space="preserve" font-family="Helvetica-Bold,Helvetica" font-weight="bold" font-size="27.7" fill="#000000" transform="matrix(1.00, 0.00, -0.00, -1.00, 147.0, 530.4)">b</text><text xml:space="preserve" font-family="Helvetica-Bold,Helvetica" font-weight="bold" font-size="27.7" fill="#000000" transform="matrix(1.00, 0.00, -0.00, -1.00, 164.0, 530.4)">s</text><text xml:space="preserve" font-family="Helvetica-Bold,Helvetica" font-weight="bold" font-size="27.7" fill="#000000" transform="matrix(1.00, 0.00, -0.00, -1.00, 179.4, 530.4)">t</text><text xml:space="preserve" font-family="Helvetica-Bold,Helvetica" font-weight="bold" font-size="27.7" fill="#000000" transform="matrix(1.00, 0.00, -0.00, -1.00, 188.6, 530.4)">o</text><text xml:space="preserve" font-family="Helvetica-Bold,Helvetica" font-weight="bold" font-size="27.7" fill="#000000" transform="matrix(1.00, 0.00, -0.00, -1.00, 205.6, 530.4)">r</text><text xml:space="preserve" font-family="Helvetica-Bold,Helvetica" font-weight="bold" font-size="27.7" fill="#000000" transform="matrix(1.00, 0.00, -0.00, -1.00, 216.3, 530.4)">m</text><text xml:space="preserve" font-family="Helvetica-Bold,Helvetica" font-weight="bold" font-size="27.7" fill="#000000" transform="matrix(1.00, 0.00, -0.00, -1.00, 241.0, 530.4)"> </text><text xml:space="preserve" font-family="Helvetica-Bold,Helvetica" font-weight="bold" font-size="27.7" fill="#000000" transform="matrix(1.00, 0.00, -0.00, -1.00, 248.7, 530.4)">a</text><text xml:space="preserve" font-family="Helvetica-Bold,Helvetica" font-weight="bold" font-size="27.7" fill="#000000" transform="matrix(1.00, 0.00, -0.00, -1.00, 264.1, 530.4)">n</text><text xml:space="preserve" font-family="Helvetica-Bold,Helvetica" font-weight="bold" font-size="27.7" fill="#000000" transform="matrix(1.00, 0.00, -0.00, -1.00, 281.0, 530.4)">d</text><text xml:space="preserve" font-family="Helvetica-Bold,Helvetica" font-weight="bold" font-size="27.7" fill="#000000" transform="matrix(1.00, 0.00, -0.00, -1.00, 298.0, 530.4)"> </text><text xml:space="preserve" font-family="Helvetica-Bold,Helvetica" font-weight="bold" font-size="27.7" fill="#000000" transform="matrix(1.00, 0.00, -0.00, -1.00, 305.7, 530.4)">o</text><text xml:space="preserve" font-family="Helvetica-Bold,Helvetica" font-weight="bold" font-size="27.7" fill="#000000" transform="matrix(1.00, 0.00, -0.00, -1.00, 322.6, 530.4)">t</text><text xml:space="preserve" font-family="Helvetica-Bold,Helvetica" font-weight="bold" font-size="27.7" fill="#000000" transform="matrix(1.00, 0.00, -0.00, -1.00, 331.8, 530.4)">h</text><text xml:space="preserve" font-family="Helvetica-Bold,Helvetica" font-weight="bold" font-size="27.7" fill="#000000" transform="matrix(1.00, 0.00, -0.00, -1.00, 348.8, 530.4)">e</text><text xml:space="preserve" font-family="Helvetica-Bold,Helvetica" font-weight="bold" font-size="27.7" fill="#000000" transform="matrix(1.00, 0.00, -0.00, -1.00, 364.2, 530.4)">r</text><text xml:space="preserve" font-family="Helvetica-Bold,Helvetica" font-weight="bold" font-size="27.7" fill="#000000" transform="matrix(1.00, 0.00, -0.00, -1.00, 375.0, 530.4)"> </text><text xml:space="preserve" font-family="Helvetica-Bold,Helvetica" font-weight="bold" font-size="27.7" fill="#000000" transform="matrix(1.00, 0.00, -0.00, -1.00, 382.7, 530.4)">I</text><text xml:space="preserve" font-family="Helvetica-Bold,Helvetica" font-weight="bold" font-size="27.7" fill="#000000" transform="matrix(1.00, 0.00, -0.00, -1.00, 390.4, 530.4)">D</text><text xml:space="preserve" font-family="Helvetica-Bold,Helvetica" font-weight="bold" font-size="27.7" fill="#000000" transform="matrix(1.00, 0.00, -0.00, -1.00, 410.4, 530.4)">E</text><text xml:space="preserve" font-family="Helvetica-Bold,Helvetica" font-weight="bold" font-size="27.7" fill="#000000" transform="matrix(1.00, 0.00, -0.00, -1.00, 428.9, 530.4)">s</text><text xml:space="preserve" font-family="Helvetica-Light,Helvetica" font-size="27.7" fill="#000000" transform="matrix(1.00, 0.00, -0.00, -1.00, 444.3, 530.4)">:</text><text xml:space="preserve" font-family="Helvetica-Light,Helvetica" font-size="27.7" fill="#000000" transform="matrix(1.00, 0.00, -0.00, -1.00, 452.0, 530.4)"> </text><text xml:space="preserve" font-family="Helvetica-Light,Helvetica" font-size="27.7" fill="#000000" transform="matrix(1.00, 0.00, -0.00, -1.00, 459.7, 530.4)">v</text><text xml:space="preserve" font-family="Helvetica-Light,Helvetica" font-size="27.7" fill="#000000" transform="matrix(1.00, 0.00, -0.00, -1.00, 473.6, 530.4)">i</text><text xml:space="preserve" font-family="Helvetica-Light,Helvetica" font-size="27.7" fill="#000000" transform="matrix(1.00, 0.00, -0.00, -1.00, 479.7, 530.4)">s</text><text xml:space="preserve" font-family="Helvetica-Light,Helvetica" font-size="27.7" fill="#000000" transform="matrix(1.00, 0.00, -0.00, -1.00, 493.6, 530.4)">u</text><text xml:space="preserve" font-family="Helvetica-Light,Helvetica" font-size="27.7" fill="#000000" transform="matrix(1.00, 0.00, -0.00, -1.00, 509.0, 530.4)">a</text><text xml:space="preserve" font-family="Helvetica-Light,Helvetica" font-size="27.7" fill="#000000" transform="matrix(1.00, 0.00, -0.00, -1.00, 524.4, 530.4)">l</text><text xml:space="preserve" font-family="Helvetica-Light,Helvetica" font-size="27.7" fill="#000000" transform="matrix(1.00, 0.00, -0.00, -1.00, 530.6, 530.4)"> </text><text xml:space="preserve" font-family="Helvetica-Light,Helvetica" font-size="27.7" fill="#000000" transform="matrix(1.00, 0.00, -0.00, -1.00, 538.3, 530.4)">d</text><text xml:space="preserve" font-family="Helvetica-Light,Helvetica" font-size="27.7" fill="#000000" transform="matrix(1.00, 0.00, -0.00, -1.00, 555.2, 530.4)">e</text><text xml:space="preserve" font-family="Helvetica-Light,Helvetica" font-size="27.7" fill="#000000" transform="matrix(1.00, 0.00, -0.00, -1.00, 570.6, 530.4)">b</text><text xml:space="preserve" font-family="Helvetica-Light,Helvetica" font-size="27.7" fill="#000000" transform="matrix(1.00, 0.00, -0.00, -1.00, 587.6, 530.4)">u</text><text xml:space="preserve" font-family="Helvetica-Light,Helvetica" font-size="27.7" fill="#000000" transform="matrix(1.00, 0.00, -0.00, -1.00, 603.0, 530.4)">g</text><text xml:space="preserve" font-family="Helvetica-Light,Helvetica" font-size="27.7" fill="#000000" transform="matrix(1.00, 0.00, -0.00, -1.00, 619.9, 530.4)">g</text><text xml:space="preserve" font-family="Helvetica-Light,Helvetica" font-size="27.7" fill="#000000" transform="matrix(1.00, 0.00, -0.00, -1.00, 636.8, 530.4)">e</text><text xml:space="preserve" font-family="Helvetica-Light,Helvetica" font-size="27.7" fill="#000000" transform="matrix(1.00, 0.00, -0.00, -1.00, 652.3, 530.4)">r</text><text xml:space="preserve" font-family="Helvetica-Light,Helvetica" font-size="27.7" fill="#000000" transform="matrix(1.00, 0.00, -0.00, -1.00, 661.5, 530.4)">s</text><text xml:space="preserve" font-family="Helvetica-Light,Helvetica" font-size="27.7" fill="#000000" transform="matrix(1.00, 0.00, -0.00, -1.00, 675.3, 530.4)">,</text><text xml:space="preserve" font-family="Helvetica-Light,Helvetica" font-size="27.7" fill="#000000" transform="matrix(1.00, 0.00, -0.00, -1.00, 683.1, 530.4)"> </text><text xml:space="preserve" font-family="Helvetica-Light,Helvetica" font-size="27.7" fill="#000000" transform="matrix(1.00, 0.00, -0.00, -1.00, 690.8, 530.4)">ﬁ</text><text xml:space="preserve" font-family="Helvetica-Light,Helvetica" font-size="27.7" fill="#000000" transform="matrix(1.00, 0.00, -0.00, -1.00, 704.6, 530.4)">n</text><text xml:space="preserve" font-family="Helvetica-Light,Helvetica" font-size="27.7" fill="#000000" transform="matrix(1.00, 0.00, -0.00, -1.00, 720.0, 530.4)">d</text><text xml:space="preserve" font-family="Helvetica-Light,Helvetica" font-size="27.7" fill="#000000" transform="matrix(1.00, 0.00, -0.00, -1.00, 737.0, 530.4)"> </text><text xml:space="preserve" font-family="Helvetica-Light,Helvetica" font-size="27.7" fill="#000000" transform="matrix(1.00, 0.00, -0.00, -1.00, 744.7, 530.4)">u</text><text xml:space="preserve" font-family="Helvetica-Light,Helvetica" font-size="27.7" fill="#000000" transform="matrix(1.00, 0.00, -0.00, -1.00, 760.1, 530.4)">s</text><text xml:space="preserve" font-family="Helvetica-Light,Helvetica" font-size="27.7" fill="#000000" transform="matrix(1.00, 0.00, -0.00, -1.00, 773.9, 530.4)">a</text><text xml:space="preserve" font-family="Helvetica-Light,Helvetica" font-size="27.7" fill="#000000" transform="matrix(1.00, 0.00, -0.00, -1.00, 789.4, 530.4)">g</text><text xml:space="preserve" font-family="Helvetica-Light,Helvetica" font-size="27.7" fill="#000000" transform="matrix(1.00, 0.00, -0.00, -1.00, 806.3, 530.4)">e</text><text xml:space="preserve" font-family="Helvetica-Light,Helvetica" font-size="27.7" fill="#000000" transform="matrix(1.00, 0.00, -0.00, -1.00, 821.7, 530.4)">s</text><text xml:space="preserve" font-family="Helvetica-Light,Helvetica" font-size="27.7" fill="#000000" transform="matrix(1.00, 0.00, -0.00, -1.00, 835.6, 530.4)"> </text><text xml:space="preserve" font-family="Helvetica-Light,Helvetica" font-size="27.7" fill="#000000" transform="matrix(1.00, 0.00, -0.00, -1.00, 843.3, 530.4)">o</text><text xml:space="preserve" font-family="Helvetica-Light,Helvetica" font-size="27.7" fill="#000000" transform="matrix(1.00, 0.00, -0.00, -1.00, 858.7, 530.4)">f</text><text xml:space="preserve" font-family="Helvetica-Light,Helvetica" font-size="27.7" fill="#000000" transform="matrix(1.00, 0.00, -0.00, -1.00, 866.4, 530.4)"> </text><text xml:space="preserve" font-family="Helvetica-Light,Helvetica" font-size="27.7" fill="#000000" transform="matrix(1.00, 0.00, -0.00, -1.00, 106.0, 498.4)">f</text><text xml:space="preserve" font-family="Helvetica-Light,Helvetica" font-size="27.7" fill="#000000" transform="matrix(1.00, 0.00, -0.00, -1.00, 113.7, 498.4)">u</text><text xml:space="preserve" font-family="Helvetica-Light,Helvetica" font-size="27.7" fill="#000000" transform="matrix(1.00, 0.00, -0.00, -1.00, 129.1, 498.4)">n</text><text xml:space="preserve" font-family="Helvetica-Light,Helvetica" font-size="27.7" fill="#000000" transform="matrix(1.00, 0.00, -0.00, -1.00, 144.5, 498.4)">c</text><text xml:space="preserve" font-family="Helvetica-Light,Helvetica" font-size="27.7" fill="#000000" transform="matrix(1.00, 0.00, -0.00, -1.00, 159.9, 498.4)">t</text><text xml:space="preserve" font-family="Helvetica-Light,Helvetica" font-size="27.7" fill="#000000" transform="matrix(1.00, 0.00, -0.00, -1.00, 167.6, 498.4)">i</text><text xml:space="preserve" font-family="Helvetica-Light,Helvetica" font-size="27.7" fill="#000000" transform="matrix(1.00, 0.00, -0.00, -1.00, 173.8, 498.4)">o</text><text xml:space="preserve" font-family="Helvetica-Light,Helvetica" font-size="27.7" fill="#000000" transform="matrix(1.00, 0.00, -0.00, -1.00, 189.2, 498.4)">n</text><text xml:space="preserve" font-family="Helvetica-Light,Helvetica" font-size="27.7" fill="#000000" transform="matrix(1.00, 0.00, -0.00, -1.00, 204.6, 498.4)">s</text><text xml:space="preserve" font-family="Helvetica-Light,Helvetica" font-size="27.7" fill="#000000" transform="matrix(1.00, 0.00, -0.00, -1.00, 218.4, 498.4)">,</text><text xml:space="preserve" font-family="Helvetica-Light,Helvetica" font-size="27.7" fill="#000000" transform="matrix(1.00, 0.00, -0.00, -1.00, 226.1, 498.4)"> </text><text xml:space="preserve" font-family="Helvetica-Light,Helvetica" font-size="27.7" fill="#000000" transform="matrix(1.00, 0.00, -0.00, -1.00, 233.9, 498.4)">e</text><text xml:space="preserve" font-family="Helvetica-Light,Helvetica" font-size="27.7" fill="#000000" transform="matrix(1.00, 0.00, -0.00, -1.00, 249.3, 498.4)">x</text><text xml:space="preserve" font-family="Helvetica-Light,Helvetica" font-size="27.7" fill="#000000" transform="matrix(1.00, 0.00, -0.00, -1.00, 263.1, 498.4)">t</text><text xml:space="preserve" font-family="Helvetica-Light,Helvetica" font-size="27.7" fill="#000000" transform="matrix(1.00, 0.00, -0.00, -1.00, 270.8, 498.4)">e</text><text xml:space="preserve" font-family="Helvetica-Light,Helvetica" font-size="27.7" fill="#000000" transform="matrix(1.00, 0.00, -0.00, -1.00, 286.2, 498.4)">n</text><text xml:space="preserve" font-family="Helvetica-Light,Helvetica" font-size="27.7" fill="#000000" transform="matrix(1.00, 0.00, -0.00, -1.00, 301.7, 498.4)">s</text><text xml:space="preserve" font-family="Helvetica-Light,Helvetica" font-size="27.7" fill="#000000" transform="matrix(1.00, 0.00, -0.00, -1.00, 315.5, 498.4)">i</text><text xml:space="preserve" font-family="Helvetica-Light,Helvetica" font-size="27.7" fill="#000000" transform="matrix(1.00, 0.00, -0.00, -1.00, 321.7, 498.4)">v</text><text xml:space="preserve" font-family="Helvetica-Light,Helvetica" font-size="27.7" fill="#000000" transform="matrix(1.00, 0.00, -0.00, -1.00, 335.5, 498.4)">e</text><text xml:space="preserve" font-family="Helvetica-Light,Helvetica" font-size="27.7" fill="#000000" transform="matrix(1.00, 0.00, -0.00, -1.00, 350.9, 498.4)"> </text><text xml:space="preserve" font-family="Helvetica-Light,Helvetica" font-size="27.7" fill="#000000" transform="matrix(1.00, 0.00, -0.00, -1.00, 358.6, 498.4)">a</text><text xml:space="preserve" font-family="Helvetica-Light,Helvetica" font-size="27.7" fill="#000000" transform="matrix(1.00, 0.00, -0.00, -1.00, 374.1, 498.4)">u</text><text xml:space="preserve" font-family="Helvetica-Light,Helvetica" font-size="27.7" fill="#000000" transform="matrix(1.00, 0.00, -0.00, -1.00, 389.5, 498.4)">t</text><text xml:space="preserve" font-family="Helvetica-Light,Helvetica" font-size="27.7" fill="#000000" transform="matrix(1.00, 0.00, -0.00, -1.00, 397.2, 498.4)">o</text><text xml:space="preserve" font-family="Helvetica-Light,Helvetica" font-size="27.7" fill="#000000" transform="matrix(1.00, 0.00, -0.00, -1.00, 412.6, 498.4)">c</text><text xml:space="preserve" font-family="Helvetica-Light,Helvetica" font-size="27.7" fill="#000000" transform="matrix(1.00, 0.00, -0.00, -1.00, 428.0, 498.4)">o</text><text xml:space="preserve" font-family="Helvetica-Light,Helvetica" font-size="27.7" fill="#000000" transform="matrix(1.00, 0.00, -0.00, -1.00, 443.4, 498.4)">m</text><text xml:space="preserve" font-family="Helvetica-Light,Helvetica" font-size="27.7" fill="#000000" transform="matrix(1.00, 0.00, -0.00, -1.00, 466.5, 498.4)">p</text><text xml:space="preserve" font-family="Helvetica-Light,Helvetica" font-size="27.7" fill="#000000" transform="matrix(1.00, 0.00, -0.00, -1.00, 483.4, 498.4)">l</text><text xml:space="preserve" font-family="Helvetica-Light,Helvetica" font-size="27.7" fill="#000000" transform="matrix(1.00, 0.00, -0.00, -1.00, 489.6, 498.4)">e</text><text xml:space="preserve" font-family="Helvetica-Light,Helvetica" font-size="27.7" fill="#000000" transform="matrix(1.00, 0.00, -0.00, -1.00, 505.0, 498.4)">t</text><text xml:space="preserve" font-family="Helvetica-Light,Helvetica" font-size="27.7" fill="#000000" transform="matrix(1.00, 0.00, -0.00, -1.00, 512.7, 498.4)">i</text><text xml:space="preserve" font-family="Helvetica-Light,Helvetica" font-size="27.7" fill="#000000" transform="matrix(1.00, 0.00, -0.00, -1.00, 518.9, 498.4)">o</text><text xml:space="preserve" font-family="Helvetica-Light,Helvetica" font-size="27.7" fill="#000000" transform="matrix(1.00, 0.00, -0.00, -1.00, 534.3, 498.4)">n</text></g></svg>